<?xml version="1.0" encoding="iso-8859-1"?>
<!-- Generator: Adobe Illustrator 19.0.0, SVG Export Plug-In . SVG Version: 6.00 Build 0)  -->
<svg version="1.1" id="Capa_1" xmlns="http://www.w3.org/2000/svg" xmlns:xlink="http://www.w3.org/1999/xlink" x="0px" y="0px"
	 viewBox="0 0 512 512" style="enable-background:new 0 0 512 512;" xml:space="preserve">
<polygon style="fill:#A8E5FF;" points="459.5,324.5 339.5,27.09 489.5,27.09 489.5,324.5 "/>
<rect x="22.5" y="27.5" style="fill:#DBF4FF;" width="437" height="297"/>
<path style="fill:#B3B3B3;" d="M504.5,332H7.5c-4.143,0-7.5-3.357-7.5-7.5s3.357-7.5,7.5-7.5h497c4.143,0,7.5,3.357,7.5,7.5
	S508.643,332,504.5,332z"/>
<path style="fill:#FFA754;" d="M211,204.59c-45.49,0-82.5-37.01-82.5-82.5c0-4.143-3.357-7.5-7.5-7.5s-7.5,3.357-7.5,7.5
	c0,53.762,43.738,97.5,97.5,97.5h45v-15H211z"/>
<path style="fill:#E18F4E;" d="M391,114.59c-4.143,0-7.5,3.357-7.5,7.5c0,45.49-37.01,82.5-82.5,82.5h-45v15h45
	c53.762,0,97.5-43.738,97.5-97.5C398.5,117.947,395.143,114.59,391,114.59z"/>
<polygon style="fill:#999999;" points="474.5,42.5 444.5,25 474.5,7.5 504.5,7.5 504.5,42.5 "/>
<rect x="7.5" y="7.5" style="fill:#B3B3B3;" width="467" height="35"/>
<path style="fill:#FF6337;" d="M281,192.09h-30l20,120h30v-100C301,201.044,292.046,192.09,281,192.09z"/>
<path style="fill:#FF8646;" d="M251,192.09h-20c-11.046,0-20,8.954-20,20v100h60v-100C271,201.044,262.046,192.09,251,192.09z"/>
<path style="fill:#85453D;" d="M223.409,86.06l-36.196,38.015c-3.847,4.037-6.213,9.498-6.213,15.515
	c0,12.426,10.074,22.5,22.5,22.5H256V86.06H223.409z"/>
<path style="fill:#60312C;" d="M324.787,124.075L288.591,86.06H256v76.03h52.5c12.426,0,22.5-10.074,22.5-22.5
	C331,133.573,328.634,128.112,324.787,124.075z"/>
<path style="fill:#E18F4E;" d="M255.997,82.09v80c24.853,0,45-20.147,45-45c0-5.261-0.912-10.307-2.571-15L255.997,82.09z"/>
<path style="fill:#60312C;" d="M255.997,72.09l14.143,30h28.286C292.248,84.614,275.589,72.09,255.997,72.09z"/>
<path style="fill:#FFA754;" d="M213.568,102.09c-1.659,4.693-2.571,9.739-2.571,15c0,24.853,20.147,45,45,45
	c8.284,0,15-20.147,15-45c0-5.261-0.304-10.307-0.857-15l-14.143-20L213.568,102.09z"/>
<path style="fill:#85453D;" d="M255.997,72.09c-19.592,0-36.25,12.524-42.429,30h56.572C268.081,84.614,262.528,72.09,255.997,72.09
	z"/>
<g>
	<circle style="fill:#FF6337;" cx="256" cy="222.09" r="7.5"/>
	<circle style="fill:#FF6337;" cx="256" cy="252.09" r="7.5"/>
</g>
<polygon style="fill:#60312C;" points="166,282.09 166,312.09 300,494.5 346,494.5 346,282.09 "/>
<rect x="166" y="312.09" style="fill:#85453D;" width="150" height="182.41"/>
<path style="fill:#CF301B;" d="M461,474.5h-30l20,30h30v-10C481,483.454,472.046,474.5,461,474.5z"/>
<path style="fill:#FF4128;" d="M431,474.5h-20c-11.046,0-20,8.954-20,20v10h60v-10C451,483.454,442.046,474.5,431,474.5z"/>
<path style="fill:#FF8D7E;" d="M436,354.5v90c24.853,0,45-20.147,45-45S460.853,354.5,436,354.5z"/>
<path style="fill:#FFB4A9;" d="M451,399.5c0-24.853-6.716-45-15-45c-24.853,0-45,20.147-45,45s20.147,45,45,45
	C444.284,444.5,451,424.353,451,399.5z"/>
<path style="fill:#9DB55F;" d="M371,474.5h-30l20,30h30v-10C391,483.454,382.046,474.5,371,474.5z"/>
<path style="fill:#B9D171;" d="M341,474.5h-20c-11.046,0-20,8.954-20,20v10h60v-10C361,483.454,352.046,474.5,341,474.5z"/>
<path style="fill:#C27749;" d="M346,354.5v90c24.853,0,45-20.147,45-45S370.853,354.5,346,354.5z"/>
<path style="fill:#E18F4E;" d="M361,399.5c0-24.853-6.716-45-15-45c-24.853,0-45,20.147-45,45s20.147,45,45,45
	C354.284,444.5,361,424.353,361,399.5z"/>
<path style="fill:#A8E5FF;" d="M281,474.5h-30l20,30h30v-10C301,483.454,292.046,474.5,281,474.5z"/>
<path style="fill:#DBF4FF;" d="M251,474.5h-20c-11.046,0-20,8.954-20,20v10h60v-10C271,483.454,262.046,474.5,251,474.5z"/>
<path style="fill:#FFD9D4;" d="M256,354.5v90c24.853,0,45-20.147,45-45S280.853,354.5,256,354.5z"/>
<path style="fill:#FFF0D3;" d="M271,399.5c0-24.853-6.716-45-15-45c-24.853,0-45,20.147-45,45s20.147,45,45,45
	C264.284,444.5,271,424.353,271,399.5z"/>
<path style="fill:#FFA754;" d="M191,474.5h-30l20,30h30v-10C211,483.454,202.046,474.5,191,474.5z"/>
<path style="fill:#FFCB63;" d="M161,474.5h-20c-11.046,0-20,8.954-20,20v10h60v-10C181,483.454,172.046,474.5,161,474.5z"/>
<path style="fill:#FFB4A9;" d="M166,354.5v90c24.853,0,45-20.147,45-45S190.853,354.5,166,354.5z"/>
<path style="fill:#FFD9D4;" d="M181,399.5c0-24.853-6.716-45-15-45c-24.853,0-45,20.147-45,45s20.147,45,45,45
	C174.284,444.5,181,424.353,181,399.5z"/>
<path style="fill:#2DADE3;" d="M101,474.5H71l20,30h30v-10C121,483.454,112.046,474.5,101,474.5z"/>
<path style="fill:#49C9FF;" d="M71,474.5H51c-11.046,0-20,8.954-20,20v10h60v-10C91,483.454,82.046,474.5,71,474.5z"/>
<path style="fill:#85453D;" d="M76,354.5v90c24.853,0,45-20.147,45-45S100.853,354.5,76,354.5z"/>
<path style="fill:#A45E43;" d="M91,399.5c0-24.853-6.716-45-15-45c-24.853,0-45,20.147-45,45s20.147,45,45,45
	C84.284,444.5,91,424.353,91,399.5z"/>
<path style="fill:#85453D;" d="M361,289.59H151c-4.143,0-7.5-3.357-7.5-7.5s3.357-7.5,7.5-7.5h210c4.143,0,7.5,3.357,7.5,7.5
	S365.143,289.59,361,289.59z"/>
<g>
</g>
<g>
</g>
<g>
</g>
<g>
</g>
<g>
</g>
<g>
</g>
<g>
</g>
<g>
</g>
<g>
</g>
<g>
</g>
<g>
</g>
<g>
</g>
<g>
</g>
<g>
</g>
<g>
</g>
</svg>
