<?xml version="1.0" encoding="utf-8"?>
<!-- Generator: Adobe Illustrator 16.0.0, SVG Export Plug-In . SVG Version: 6.00 Build 0)  -->
<!DOCTYPE svg PUBLIC "-//W3C//DTD SVG 1.1//EN" "http://www.w3.org/Graphics/SVG/1.1/DTD/svg11.dtd">
<svg version="1.1" id="Layer_1" xmlns="http://www.w3.org/2000/svg" xmlns:xlink="http://www.w3.org/1999/xlink" x="0px" y="0px"
	 width="4251.971px" height="1918px" viewBox="0 0 4251.971 1918" enable-background="new 0 0 4251.971 1918" xml:space="preserve">
<g>
	<path fill="#FFE600" d="M707.3,1436.321c10.584-56.573,14.696-114.378,28.836-170.168c14.141-55.791,39.794-110.986,84.741-146.937
		c46.833-37.457,107.647-44.361,165.56-38.721c78.801,7.676,200.801,22.066,212.647-89.306
		c7.341-69.018-50.624-112.574-111.779-124.496c-82.241-16.033-174.646,7.302-237.476,63.565
		c-66.135,59.222-98.572,153.931-114.612,238.644C718.537,1257.001,717.094,1347.193,707.3,1436.321"/>
	<path fill="#004984" d="M660.667,1436.321c-7.964-42.566-11.058-86.058-21.696-128.035c-10.639-41.977-29.941-83.506-63.76-110.554
		c-54.569-43.646-114.294-24.789-176.831-22.9c-48.209,1.457-101.509-18.917-107.629-72.87
		c-2.397-21.141,4.202-43.154,17.835-59.489c57.876-69.346,186.87-38.823,244.842,13.088
		c49.76,44.559,74.164,115.817,86.233,179.555C652.212,1301.401,653.297,1369.262,660.667,1436.321"/>
	<path fill="#FAB300" d="M714.193,1162.371c0.001-38.646,10.399-78.627,21.769-115.173c25.578-82.21,65.538-170.734,136.879-222.711
		c61.361-44.705,148.424-54.773,199.735-114.684c24.581-28.702,41.405-72.096,18.922-106.746
		c-21.87-33.705-66.154-46.566-104.427-45.698c-51.995,1.181-98.806,28.503-129.931,69.442
		c-55.204,72.609-78.67,166.36-98.487,253.79c-11.833,52.208-20.887,105.018-28.516,157.992
		C724.384,1078.527,714.194,1121.953,714.193,1162.371"/>
	<path fill="#98C21D" d="M725.339,898.722c5.033-97.658,34.216-194.8,89.223-275.65c21.841-32.104,47.792-61.882,63.559-97.366
		c6.498-14.624,11.222-30.503,9.928-46.453c-4.444-54.787-66.3-48.777-97.496-21.241c-45.122,39.827-57.91,105.308-64.68,162.35
		C714.923,712.627,720.125,805.956,725.339,898.722"/>
	<path fill="#31A93A" d="M689.285,619.582c3.628-19.78,8.36-39.354,14.302-58.604c13.498-43.728,35.121-82.672,54.995-123.569
		c17.196-35.385,33.624-78.806,16.34-117.333c-16.648-37.107-61.563-50.725-97.741-35.151
		c-26.718,11.504-43.671,37.604-51.263,64.839c-23.379,83.874,2.581,179.646,20.272,262.079
		c17.152,79.926,30.819,160.598,44.598,241.166C677.759,776.83,675.147,696.65,689.285,619.582"/>
	<path fill="#008E39" d="M687.941,1046.861c-7.687-34.592-9.193-72.14-14.007-107.372c-9.485-69.418-19.591-138.875-33.167-207.627
		c-12.515-63.374-23.099-130.498-51.734-189.864c-20.406-42.307-53.611-88.922-100.478-104.031
		c-45.618-14.706-90.711,16.459-91.21,64.795c-0.645,62.474,54.8,111.606,91.829,155.5c35.708,42.328,72.127,84.332,102.358,130.865
		c47.43,73.005,71.805,157.365,92.451,241.111C685.347,1035.768,686.705,1041.302,687.941,1046.861"/>
	<path fill="#52B4E7" d="M687.941,1259.502c3.219-117.51-9.923-240.074-65.022-345.794
		c-40.991-78.649-100.681-158.914-184.253-196.734c-39.643-17.941-91.692-23.73-133.654-11.259
		c-50.943,15.141-73.407,76.244-38.87,118.541c34.475,42.222,98.818,45.972,146.7,63.312
		c53.391,19.334,105.839,42.683,149.854,79.254c54.096,44.946,90.654,109.381,109.967,176.34
		c5.704,19.778,9.865,39.998,12.451,60.419C687.461,1222.114,688.453,1240.824,687.941,1259.502"/>
	<path fill="#0070AE" d="M510.74,978.05c-28.557-14.032-53.901-34.138-83.468-47.3c-59.84-26.637-127.742-43.414-193.444-34.625
		c-43.482,5.817-91.683,18.997-113.54,61.156c-16.937,32.67-7.297,77.306,26.376,95.191c34.863,18.517,78.979,0.512,109.955-17.886
		c24.265-14.412,45.663-32.834,70.991-45.568C383.364,960.989,452.859,949.609,510.74,978.05"/>
	<path fill="#FFD000" d="M924.347,850.348c28.45-18.264,52.775-42.551,82.396-60.018c51.94-30.629,111.989-55.399,173.457-59.573
		c56.033-3.805,135.668,12.716,165.736,66.428c12.407,22.164,6.924,46.606-7.301,66.343c-13.474,18.692-35.765,30.041-58.653,32.701
		c-27.235,3.166-55.969-5.88-80.531-16.908c-27.358-12.282-52.174-29.144-80.451-39.526
		C1056.754,816.944,982.014,813.329,924.347,850.348"/>
	<path fill="#DBB300" d="M887.636,571.987c10.686-15.854,17.88-33.914,29.353-49.617c32.617-44.645,96.648-103.776,157.666-81.835
		c35.605,12.803,41.286,58.936,5.96,76.058c-30.288,14.68-62.515,4.58-94.256,6.334
		C948.917,524.996,909.295,539.853,887.636,571.987"/>
	<path fill="#68BD97" d="M440.588,677.579c-10.686-15.854-17.88-33.914-29.353-49.617c-31.244-42.765-90.042-96.809-148.358-85.652
		c-27.454,5.253-49.524,33.812-36.414,61.287c11.095,23.251,41.806,27.78,64.774,27.437c16.957-0.254,33.62-3.455,50.628-2.515
		C379.308,630.588,418.929,645.444,440.588,677.579"/>
	<polygon fill="#52B4E7" points="922.54,1167.787 922.54,1390.662 1039.395,1390.662 1039.395,1434.773 871.851,1434.773 
		871.851,1167.787 	"/>
	<path fill="#52B4E7" d="M1119.873,1382.924l-16.252,51.85h-53.397l94.799-266.986h41.403l95.186,266.986h-53.784l-16.252-51.85
		H1119.873z M1165.531,1238.21l-32.116,102.538h64.618L1165.531,1238.21z"/>
	<polygon fill="#52B4E7" points="1441.409,1280.386 1543.173,1280.386 1543.173,1324.497 1441.409,1324.497 1441.409,1434.773 
		1390.721,1434.773 1390.721,1167.787 1560.199,1167.787 1560.199,1211.897 1441.409,1211.897 	"/>
	<path fill="#52B4E7" d="M1583.416,1270.325c0-70.938,32.373-106.407,97.12-106.407c29.665,0,53.14,8.319,70.423,24.958
		c17.283,16.638,25.925,43.787,25.925,81.449v61.137c0,37.661-8.835,64.811-26.505,81.449
		c-17.671,16.639-41.467,24.958-71.39,24.958c-63.716,0-95.573-35.47-95.573-106.407V1270.325z M1726.195,1330.688v-57.653
		c0-22.7-3.741-39.146-11.221-49.335c-7.481-10.188-18.96-15.283-34.438-15.283c-16.251,0-27.988,4.966-35.211,14.896
		c-7.222,9.932-10.834,26.505-10.834,49.722v57.653c0,21.926,3.612,37.727,10.834,47.4c7.223,9.673,18.96,14.51,35.211,14.51
		c15.478,0,26.957-4.966,34.438-14.897C1722.454,1367.77,1726.195,1352.099,1726.195,1330.688"/>
	<polygon fill="#52B4E7" points="2014.847,1434.773 1964.158,1434.773 1865.876,1268.004 1865.876,1434.773 1815.188,1434.773 
		1815.188,1167.787 1865.876,1167.787 1964.158,1334.943 1964.158,1167.787 2014.847,1167.787 	"/>
	<polygon fill="#52B4E7" points="2159.168,1211.897 2159.168,1434.772 2108.093,1434.772 2108.093,1211.897 2039.992,1211.897 
		2039.992,1167.787 2227.269,1167.787 2227.269,1211.897 	"/>
	<path fill="#52B4E7" d="M2276.793,1382.924l-16.252,51.85h-53.396l94.799-266.986h41.402l95.187,266.986h-53.784l-16.251-51.85
		H2276.793z M2322.451,1238.21l-32.115,102.538h64.618L2322.451,1238.21z"/>
	<rect x="2465.225" y="1167.787" fill="#52B4E7" width="50.688" height="266.986"/>
	<polygon fill="#52B4E7" points="2763.547,1434.773 2712.858,1434.773 2614.576,1268.004 2614.576,1434.773 2563.888,1434.773 
		2563.888,1167.787 2614.576,1167.787 2712.858,1334.943 2712.858,1167.787 2763.547,1167.787 	"/>
	<polygon fill="#52B4E7" points="2859.889,1278.064 2961.266,1278.064 2961.266,1322.175 2859.889,1322.175 2859.889,1390.662 
		2978.678,1390.662 2978.678,1434.773 2809.2,1434.773 2809.2,1167.787 2978.678,1167.787 2978.678,1211.897 2859.889,1211.897 	"/>
	<path fill="#004984" d="M3288.996,1358.16c0,24.248-7.222,43.078-21.668,56.492c-14.445,13.414-34.566,20.121-60.361,20.121
		h-107.182v-266.986h102.924c26.055,0,46.369,6.449,60.943,19.348c14.574,12.896,21.862,31.212,21.862,54.944
		c0,11.866-2.967,22.766-8.899,32.696c-5.934,9.932-14.188,17.477-24.764,22.636c12.123,5.417,21.346,13.284,27.665,23.603
		C3285.836,1331.333,3288.996,1343.715,3288.996,1358.16 M3150.474,1276.903h48.367c11.608,0,20.442-2.772,26.505-8.319
		c6.063-5.546,9.093-13.35,9.093-23.409c0-10.834-3.03-19.089-9.093-24.764c-6.063-5.676-14.896-8.514-26.505-8.514h-48.367
		V1276.903z M3238.308,1354.678c0-10.577-3.03-18.831-9.093-24.764c-6.062-5.934-15.155-8.9-27.278-8.9h-51.463v69.649h51.463
		c12.123,0,21.217-3.16,27.278-9.48C3235.277,1374.862,3238.308,1366.027,3238.308,1354.678"/>
	<polygon fill="#004984" points="3377.99,1167.787 3377.99,1390.662 3494.844,1390.662 3494.844,1434.773 3327.302,1434.773 
		3327.302,1167.787 	"/>
	<polygon fill="#004984" points="3577.646,1278.064 3679.022,1278.064 3679.022,1322.175 3577.646,1322.175 3577.646,1390.662 
		3696.435,1390.662 3696.435,1434.773 3526.957,1434.773 3526.957,1167.787 3696.435,1167.787 3696.435,1211.897 3577.646,1211.897 
			"/>
	<path fill="#004984" d="M3745.187,1393.564c-8.254-13.8-12.381-29.471-12.381-47.013v-178.765h50.688v177.217
		c0,15.22,3.998,27.021,11.994,35.405c7.997,8.384,18.96,12.574,32.891,12.574c13.93,0,24.957-4.19,33.082-12.574
		c8.125-8.385,12.188-20.186,12.188-35.405v-177.217h51.076v178.765c0,17.542-4.192,33.213-12.575,47.013
		c-8.385,13.801-19.863,24.506-34.438,32.116c-14.575,7.61-31.02,11.414-49.334,11.414c-18.058,0-34.373-3.804-48.948-11.414
		C3764.856,1418.07,3753.441,1407.365,3745.187,1393.564"/>
	<polygon fill="#004984" points="4021.071,1278.064 4122.448,1278.064 4122.448,1322.175 4021.071,1322.175 4021.071,1390.662 
		4139.859,1390.662 4139.859,1434.773 3970.383,1434.773 3970.383,1167.787 4139.859,1167.787 4139.859,1211.897 4021.071,1211.897 
			"/>
</g>
</svg>
